<?xml version="1.0" encoding="UTF-8"?>
<svg version="1.1" xmlns="http://www.w3.org/2000/svg" width="1485" height="1485">
<path d="M0 0 C490.05 0 980.1 0 1485 0 C1485 490.05 1485 980.1 1485 1485 C994.95 1485 504.9 1485 0 1485 C0 994.95 0 504.9 0 0 Z " fill="#FEFEFE" transform="translate(0,0)"/>
<path d="M0 0 C12.80049746 7.57198038 23.20233097 19.92355127 33.65942383 30.37329102 C35.21613122 31.92535903 36.77303171 33.47723339 38.33010864 35.02893066 C42.52438502 39.21019945 46.71542208 43.39469959 50.90543199 47.58024335 C53.52830972 50.20017486 56.15176695 52.81952476 58.77539635 55.43870354 C66.9997344 63.64940501 75.222096 71.86207802 83.44155675 80.07766205 C84.83934969 81.47479185 84.83934969 81.47479185 86.26538086 82.90014648 C86.73226642 83.36681061 87.19915197 83.83347474 87.68018558 84.3142802 C95.25770267 91.88784296 102.84196157 99.45461602 110.42911641 107.01852251 C118.2469633 114.81260954 126.05899773 122.61248377 133.86568469 130.41774887 C138.23786379 134.78888242 142.61241431 139.15757654 146.99302101 143.52026558 C151.10945856 147.62018796 155.21863113 151.72725637 159.32243729 155.83982086 C160.82462275 157.34277451 162.32935129 158.84319157 163.83687019 160.34079552 C185.89866856 182.26602811 185.89866856 182.26602811 186.24487305 195.01904297 C186.28798566 214.83031449 173.64187877 224.93088545 160.43590546 238.22466791 C158.2784729 240.39065988 156.11878303 242.55438513 153.95898438 244.71801758 C152.3888436 246.29443821 150.8188873 247.8710426 149.24909973 249.44781494 C144.13834425 254.57940974 139.02243677 259.70585239 133.90625 264.83203125 C132.13609193 266.60624263 130.36596578 268.38048586 128.59587097 270.15476036 C121.23374146 277.53371959 113.87051789 284.91158371 106.5036087 292.28577137 C104.60249373 294.18879555 102.7013844 296.09182535 100.80029297 297.99487305 C100.32790992 298.46773983 99.85552688 298.94060662 99.36882919 299.4278027 C91.70401196 307.10093407 84.04776539 314.78255848 76.39501947 322.46772722 C68.50900425 330.38687738 60.61524551 338.29825594 52.71440554 346.20261878 C48.28995861 350.62941064 43.86884645 355.05941362 39.45585632 359.49762917 C35.30803066 363.6687876 31.15072096 367.83025727 26.98608971 371.9846344 C25.46493693 373.5052932 23.94716551 375.02934366 22.43316078 376.55711937 C1.45840356 397.71186122 1.45840356 397.71186122 -13.3125 398 C-22.52678305 398.02006983 -29.88067425 395.75568894 -36.66015625 389.375 C-43.37689767 381.95394554 -47.01695522 372.35467134 -46.578125 362.30859375 C-45.33202431 353.94725813 -41.63102384 347.71964685 -35.84979248 341.67329407 C-35.32413028 341.11421901 -34.79846807 340.55514395 -34.25687671 339.97912723 C-28.0741271 333.44133483 -21.71256963 327.07992694 -15.34082031 320.72729492 C-13.99895065 319.38570817 -12.65730281 318.04389953 -11.31585693 316.70188904 C-7.7156108 313.10135899 -4.11231606 309.50389461 -0.50841618 305.90702224 C3.27299655 302.13191136 7.05152903 298.35391973 10.8303833 294.57624817 C17.96783296 287.44189185 25.10782514 280.31008583 32.24876142 273.17921954 C40.38630954 265.05289497 48.52097792 256.92369027 56.65541983 248.79425657 C73.37127098 232.08882452 90.0906893 215.38696651 106.8125 198.6875 C105.19347896 194.61409913 102.28416816 191.89441295 99.22149658 188.87617493 C98.64415669 188.29924288 98.0668168 187.72231084 97.47198176 187.12789601 C95.53452451 185.19417176 93.5900179 183.26769445 91.64550781 181.34106445 C90.25550046 179.95653222 88.86595476 178.57153638 87.47683716 177.18611145 C84.48288242 174.20187379 81.48589837 171.22072348 78.48661041 168.24184608 C73.74061586 163.52765866 69.0027831 158.80532633 64.26629639 154.08158875 C52.49655873 142.34594602 40.71761695 130.6195528 28.93371582 118.89813232 C19.78293744 109.79585399 10.63539203 100.69038462 1.49836993 91.57429475 C-3.20527899 86.88214512 -7.91577812 82.19701853 -12.63158369 77.51708853 C-15.57131963 74.59660915 -18.50472181 71.6698307 -21.4364357 68.74130058 C-22.79226309 67.38947646 -24.15066158 66.04022515 -25.51187515 64.69382477 C-45.23034199 45.18215499 -45.23034199 45.18215499 -45.61914062 31.62280273 C-45.64733 21.10933947 -43.7483355 14.35926166 -36.5625 6.375 C-26.39566564 -2.95879765 -12.81865543 -5.77175061 0 0 Z " fill="#565656" transform="translate(964.1875,345.3125)"/>
<path d="M0 0 C7.45033262 5.03957458 12.28287455 11.3974783 15 20 C16.24606492 28.64517912 15.42465712 37.34833731 11 45 C4.77823372 52.91468019 -2.71465552 59.84830694 -9.82983398 66.94335938 C-11.23007845 68.34332141 -12.63010204 69.74350438 -14.02992249 71.14389038 C-17.81227595 74.92652963 -21.59769499 78.70608731 -25.38368869 82.48508263 C-29.34662449 86.44174846 -33.30671064 90.40126436 -37.2671051 94.36047363 C-44.75888547 101.84915141 -52.25321033 109.33527736 -59.74846178 116.82048082 C-68.28490451 125.34572908 -76.81849293 133.87383199 -85.35184753 142.40217113 C-102.8980665 159.93795 -120.44785149 177.47015635 -138 195 C-136.37404174 199.12131135 -133.39402117 201.86156685 -130.29510498 204.9050293 C-129.70551443 205.4920953 -129.11592389 206.0791613 -128.50846696 206.68401718 C-126.52952917 208.65219085 -124.5435569 210.61311234 -122.55761719 212.57421875 C-121.13803271 213.98341717 -119.71893124 215.3931023 -118.30027771 216.80323792 C-115.24230414 219.8413194 -112.18145523 222.87646421 -109.11852264 225.9095459 C-104.27044743 230.71148898 -99.43213971 235.52319119 -94.59576416 240.33691406 C-80.84075524 254.02506686 -67.07772936 267.70508145 -53.29345703 281.36376953 C-45.6821148 288.90593044 -38.08164253 296.45887031 -30.4929688 304.0238409 C-26.47903148 308.02426853 -22.45965056 312.01886695 -18.42665863 316.00009155 C-14.62824023 319.74975856 -10.84414852 323.51331411 -7.07026863 327.28767204 C-5.68804422 328.6650792 -4.30070845 330.0373805 -2.90775108 331.40393257 C14.26078027 348.26065945 14.26078027 348.26065945 15.796875 360.25 C15.66057963 371.15362949 13.18462843 379.56824485 5.875 387.9375 C-1.88308123 394.84862913 -10.86092611 396.54544774 -20.96875 396.76171875 C-35.1435576 394.90554495 -44.71975383 383.11400986 -54.16381836 373.56494141 C-55.86062446 371.87135822 -57.55872962 370.17907571 -59.25802612 368.48799133 C-63.37236962 364.38662876 -67.47269125 360.27164166 -71.56658899 356.14987756 C-76.34211951 351.34302567 -81.13346454 346.552065 -85.9254039 341.76158039 C-94.47737856 333.21110382 -103.01482907 324.64627208 -111.54418945 316.07324219 C-119.80805469 307.76708915 -128.08237815 299.47154293 -136.3684082 291.1875 C-137.13456401 290.421524 -137.13456401 290.421524 -137.91619771 289.64007373 C-138.42611446 289.13027805 -138.9360312 288.62048237 -139.46139997 288.09523833 C-148.91625801 278.64245284 -158.36120539 269.17981938 -167.80159391 259.71258474 C-171.13189707 256.37325734 -174.46510083 253.03684214 -177.7992382 249.70134354 C-182.28877795 245.20878546 -186.77057147 240.70863644 -191.24653244 236.20255089 C-192.88827228 234.55206599 -194.53253753 232.90408862 -196.17952538 231.25884056 C-198.43061847 229.00922559 -200.67224119 226.7505715 -202.91172791 224.4894104 C-203.56211232 223.8436718 -204.21249673 223.19793319 -204.88258976 222.53262675 C-212.39679269 214.8983155 -217.25184833 207.16031355 -217.375 196.1875 C-217.14754263 182.66800274 -209.16218334 173.84629587 -199.96110535 164.70040894 C-199.27629209 164.01177014 -198.59147884 163.32313133 -197.88591367 162.61362469 C-195.60858522 160.32604438 -193.32424509 158.04560337 -191.03979492 155.76513672 C-189.39795471 154.11894576 -187.75653182 152.47233851 -186.11549377 150.8253479 C-181.66974212 146.36623528 -177.21763675 141.9135189 -172.76393294 137.46235037 C-168.57048022 133.27010489 -164.38074525 129.07414874 -160.19060699 124.87859096 C-151.38517659 116.06230246 -142.57325821 107.25252111 -133.75934527 98.44471408 C-125.70820151 90.39873981 -117.6653026 82.3445812 -109.62625357 74.28652416 C-101.35665802 65.99752664 -93.08148998 57.71413019 -84.80031091 49.43670475 C-80.15720325 44.79540811 -75.51633714 40.15192536 -70.88109398 35.50277328 C-66.52195666 31.13104487 -62.15559966 26.76665715 -57.78365135 22.40774155 C-56.18353865 20.8099912 -54.58596234 19.20969591 -52.99116898 17.60663605 C-50.80762534 15.41259511 -48.61495736 13.2280824 -46.41984558 11.04562378 C-45.48478905 10.09950582 -45.48478905 10.09950582 -44.53084248 9.13427436 C-32.33613003 -2.9138292 -16.06137043 -9.5661631 0 0 Z " fill="#555555" transform="translate(551,347)"/>
<path d="M0 0 C7.55801358 6.38232258 14.10913168 13.60836108 15.03739929 23.85835266 C15.0600433 30.94718217 14.06546589 37.49880502 12.58203125 44.41796875 C12.34973312 45.54407059 12.117435 46.67017242 11.87809753 47.83039856 C11.1372257 51.40996827 10.38143836 54.98619118 9.625 58.5625 C9.13637332 60.91060015 8.64873577 63.25890636 8.16210938 65.60742188 C6.95533268 71.41965351 5.73681009 77.22934532 4.51422119 83.03826904 C0.88315757 100.30421816 -2.67079298 117.58543963 -6.1875 134.875 C-8.86630775 148.04510719 -11.56389386 161.21072421 -14.3125 174.36645508 C-16.64186214 185.52828529 -18.91480721 196.70151895 -21.1875 207.875 C-23.86630775 221.04510719 -26.56389386 234.21072421 -29.3125 247.36645508 C-31.64186214 258.52828529 -33.91480721 269.70151895 -36.1875 280.875 C-38.86630775 294.04510719 -41.56389386 307.21072421 -44.3125 320.36645508 C-46.64186214 331.52828529 -48.91480721 342.70151895 -51.1875 353.875 C-53.66299706 366.04554923 -56.14689127 378.21394601 -58.6875 390.37109375 C-60.37630997 398.45260193 -62.04339324 406.53818304 -63.6875 414.62890625 C-63.89375 415.64346893 -64.1 416.65803162 -64.3125 417.70333862 C-65.14687565 421.80974607 -65.98065283 425.9162729 -66.8125 430.02319336 C-68.04937629 436.12688793 -69.29609 442.22841616 -70.55810547 448.32696533 C-70.98430879 450.39098469 -71.40772963 452.45558023 -71.82861328 454.52069092 C-72.45975185 457.60825765 -73.10341141 460.69297999 -73.75 463.77734375 C-74.0284375 465.15558067 -74.0284375 465.15558067 -74.3125 466.56166077 C-76.90615926 478.76352798 -81.12394254 488.77705449 -91.69140625 496.11328125 C-99.93141615 500.47274998 -109.12370462 500.82029877 -118.12109375 498.67578125 C-127.99048422 495.11559017 -133.617632 488.65621798 -138.1875 479.375 C-143.17526945 466.35897151 -138.89475894 452.93116221 -135.97021484 439.88623047 C-134.7326554 434.33458359 -133.54814834 428.77180022 -132.36669922 423.20797729 C-132.07903598 421.85378786 -131.79078103 420.49972398 -131.50195312 419.14578247 C-128.55476209 405.32494146 -125.79134033 391.46889916 -123.03820801 377.60830688 C-120.62208734 365.45082698 -118.13885154 353.31622639 -115.49584961 341.20581055 C-113.09532628 330.12174057 -110.89691408 318.99844522 -108.6875 307.875 C-106.05643303 294.62871467 -103.37583257 281.40176673 -100.49609375 268.20703125 C-98.09554732 257.12254089 -95.89699517 245.99885346 -93.6875 234.875 C-91.05643303 221.62871467 -88.37583257 208.40176673 -85.49609375 195.20703125 C-83.09554732 184.12254089 -80.89699517 172.99885346 -78.6875 161.875 C-76.05643303 148.62871467 -73.37583257 135.40176673 -70.49609375 122.20703125 C-68.09554537 111.12253191 -65.89736114 99.99878771 -63.6875 88.875 C-60.74343251 74.06226017 -57.75867274 59.2654592 -54.51171875 44.515625 C-53.59269918 40.32846271 -52.750269 36.13463644 -51.95703125 31.921875 C-48.19121556 12.34846193 -48.19121556 12.34846193 -41.1875 5.375 C-40.64222656 4.79105469 -40.09695313 4.20710938 -39.53515625 3.60546875 C-28.41367589 -7.14965697 -13.1560505 -6.70700614 0 0 Z " fill="#555555" transform="translate(799.1875,296.625)"/>
<path d="M0 0 C8.58 0 17.16 0 26 0 C26 69.96 26 139.92 26 212 C19.73 212 13.46 212 7 212 C5.01785463 210.01785463 5.32410905 206.34954173 5 203.625 C4.36486667 198.2407188 4.36486667 198.2407188 3 193 C2.52691406 193.64066406 2.05382813 194.28132813 1.56640625 194.94140625 C-6.68268194 205.73114928 -16.24183832 213.33947303 -29.87890625 215.6796875 C-44.76523657 217.20744606 -59.4296294 216.90452504 -71.953125 207.671875 C-88.68757605 194.00327758 -95.52538798 173.75090654 -97.77294922 152.7578125 C-99.54844748 131.19219058 -98.82120896 108.04580121 -90 88 C-89.44699219 86.67162109 -89.44699219 86.67162109 -88.8828125 85.31640625 C-83.24546333 72.85592067 -74.47791075 64.30930719 -62.11328125 58.6875 C-49.41792516 54.00598585 -32.6191288 53.97132462 -20 59 C-12.54775169 62.55448991 -7.254945 67.44004889 -1 73 C-0.67 48.91 -0.34 24.82 0 0 Z " fill="#030303" transform="translate(1146,884)"/>
<path d="M0 0 C51.15 0 102.3 0 155 0 C155 13.2 155 26.4 155 40 C120.02 40 85.04 40 49 40 C49 55.51 49 71.02 49 87 C77.05 87 105.1 87 134 87 C134 99.54 134 112.08 134 125 C105.95 125 77.9 125 49 125 C49 153.71 49 182.42 49 212 C32.83 212 16.66 212 0 212 C0 142.04 0 72.08 0 0 Z " fill="#FF914D" transform="translate(151,884)"/>
<path d="M0 0 C7.76629503 7.31420301 13.20207321 18.46235582 13.74804783 29.16123676 C13.74712604 30.00467734 13.74620424 30.84811792 13.74525452 31.71711731 C13.74731651 33.17886887 13.74731651 33.17886887 13.74942017 34.67015076 C13.74582489 35.72750931 13.74222961 36.78486786 13.73852539 37.87426758 C13.73867142 38.99665833 13.73881744 40.11904907 13.7389679 41.27545166 C13.73827176 44.98183125 13.73049328 48.68816045 13.72265625 52.39453125 C13.72079101 54.96571322 13.71936761 57.53689555 13.71836853 60.108078 C13.71494173 66.18175941 13.70706183 72.25542005 13.69701904 78.32909364 C13.68583146 85.24564138 13.68034079 92.16218999 13.67532361 99.07874453 C13.6648785 113.30250763 13.6465436 127.52624948 13.625 141.75 C2.735 141.75 -8.155 141.75 -19.375 141.75 C-23.375 130.75 -23.375 130.75 -23.375 128.75 C-23.95765625 129.18570312 -24.5403125 129.62140625 -25.140625 130.0703125 C-45.06282011 144.54209574 -66.66344631 148.96652647 -91.06445312 145.3515625 C-99.09817097 143.62101847 -106.47114109 140.57070596 -112.375 134.75 C-112.98601562 134.18796875 -113.59703125 133.6259375 -114.2265625 133.046875 C-122.60847953 124.55795477 -124.85020579 114.65798601 -124.9375 103.125 C-124.7118945 89.34365768 -120.74196098 80.05510037 -111.375 69.75 C-91.57079571 51.64506441 -59.47086012 45.72980135 -33.5234375 46.609375 C-32.81445312 46.65578125 -32.10546875 46.7021875 -31.375 46.75 C-31.4353174 43.87285987 -31.52245596 41.00069146 -31.625 38.125 C-31.63917969 37.31675781 -31.65335937 36.50851562 -31.66796875 35.67578125 C-31.88749119 30.27552926 -32.76727666 27.01727057 -36.375 22.75 C-44.54666128 17.70791113 -54.8370339 17.56551827 -64.11328125 19.24609375 C-69.0120936 20.70338751 -72.07237499 22.72492577 -75.375 26.75 C-77.00879316 29.72949852 -77.00879316 29.72949852 -77.375 37.75 C-91.895 37.75 -106.415 37.75 -121.375 37.75 C-121.375 22.53029035 -119.82901606 12.81716448 -109.59765625 1.84375 C-84.02158957 -22.00632445 -27.05638304 -21.62480145 0 0 Z " fill="#FF914E" transform="translate(443.375,954.25)"/>
<path d="M0 0 C0.95648437 0.26039063 1.91296875 0.52078125 2.8984375 0.7890625 C17.52313915 5.72547599 27.372435 16.00426314 34.75 29.3125 C47.26507363 55.5650498 47.1316001 89.57072871 38.8671875 117.01171875 C33.26615656 132.6834775 23.45891193 145.32790233 8.48828125 152.73828125 C-7.65838404 160.05687703 -27.23887134 160.36348053 -43.9375 154.3125 C-58.98830835 147.88578121 -69.34003027 137.35161051 -75.59765625 122.25390625 C-87.1973543 92.58001365 -86.15462831 57.92183512 -73.625 28.8046875 C-66.57177347 14.7383096 -54.78594432 5.07148074 -40.1875 -0.5 C-27.66230254 -3.9647425 -12.47241614 -3.43750414 0 0 Z " fill="#030303" transform="translate(974,942)"/>
<path d="M0 0 C0.69744324 0.00337372 1.39488647 0.00674744 2.11346436 0.01022339 C19.86674116 0.13436685 39.0855785 2.81700491 52.60546875 15.65234375 C59.12524312 23.3118216 64.21083017 31.88560775 64.15063477 42.09130859 C64.14693375 42.90441498 64.14323273 43.71752136 64.13941956 44.55526733 C64.1346611 45.17640411 64.12990265 45.79754089 64.125 46.4375 C58.11119754 46.63569859 52.09930615 46.78063071 46.08300781 46.87695312 C44.03807453 46.91711336 41.99336997 46.97165582 39.94921875 47.04101562 C37.00463468 47.13840459 34.06309151 47.18349788 31.1171875 47.21875 C30.2075827 47.26004028 29.29797791 47.30133057 28.36080933 47.34387207 C22.07295039 47.34828775 22.07295039 47.34828775 19.28825378 44.67276001 C17.70727539 42.51220703 17.70727539 42.51220703 16.40931702 40.35305786 C14.26472101 37.15439453 11.74224969 36.44037769 8.125 35.4375 C5.0873533 35.06272092 2.12014909 35.01659701 -0.9375 35.0625 C-1.71416016 35.05089844 -2.49082031 35.03929687 -3.29101562 35.02734375 C-9.05779622 35.05664153 -13.33455059 36.15109553 -17.75 40.125 C-19.42244873 43.56281127 -19.49603364 46.73985144 -18.875 50.4375 C-15.88700433 56.91149061 -10.91035546 58.93149727 -4.53271484 61.31164551 C-1.96869899 62.18276003 0.60559774 63.01158268 3.1875 63.828125 C5.13943599 64.46189142 7.09125514 65.09601782 9.04296875 65.73046875 C12.07087879 66.70694658 15.09992086 67.67951231 18.13134766 68.64501953 C53.84188028 80.05344415 53.84188028 80.05344415 61.125 90.4375 C61.98544922 91.59185547 61.98544922 91.59185547 62.86328125 92.76953125 C67.10212945 99.5809218 67.68720794 105.66722406 67.75 113.5625 C67.76087646 114.48039307 67.77175293 115.39828613 67.78295898 116.34399414 C67.55049507 127.58176271 63.00031615 136.23284999 55.3828125 144.27734375 C41.39106112 157.54338188 22.16880251 160.80799941 3.66821289 160.75317383 C1.45863678 160.75003007 -0.74957431 160.77348916 -2.95898438 160.79882812 C-22.92912194 160.88711701 -40.23037539 156.51576301 -55.1875 142.625 C-63.40170632 134.02912349 -65.875 124.01113164 -65.875 112.4375 C-51.355 112.4375 -36.835 112.4375 -21.875 112.4375 C-17.875 119.4375 -17.875 119.4375 -17.875 121.4375 C-17.1325 121.72625 -16.39 122.015 -15.625 122.3125 C-12.875 123.4375 -12.875 123.4375 -10.98120117 124.48681641 C-7.21673459 126.18599722 -3.25735683 125.80653684 0.8125 125.8125 C2.10317383 125.84923828 2.10317383 125.84923828 3.41992188 125.88671875 C9.62557794 125.91477748 14.8376812 124.82671506 20.125 121.4375 C22.23712504 118.26931244 22.45656464 116.30530748 22.68359375 112.5703125 C21.78397799 109.13541596 19.80643852 107.72495855 17.125 105.4375 C14.19108713 103.9801103 11.15080339 102.95050487 8.046875 101.9140625 C7.1620343 101.60479828 6.2771936 101.29553406 5.36553955 100.97689819 C2.53988165 99.9917555 -0.2919581 99.02617887 -3.125 98.0625 C-24.62684973 90.66256149 -24.62684973 90.66256149 -34.34765625 86.70703125 C-35.36034576 86.29990402 -35.36034576 86.29990402 -36.39349365 85.884552 C-45.68844174 82.0211705 -53.85603133 76.29735145 -58.875 67.4375 C-59.28621094 66.71949219 -59.69742187 66.00148438 -60.12109375 65.26171875 C-63.09206501 58.81604753 -63.28762849 52.35656613 -63.375 45.375 C-63.39353027 44.45315918 -63.41206055 43.53131836 -63.43115234 42.58154297 C-63.33382859 31.86638873 -59.31920767 23.09562168 -51.875 15.4375 C-36.87200391 2.71311594 -19.09271148 -0.18042203 0 0 Z " fill="#FF914E" transform="translate(541.875,939.5625)"/>
<path d="M0 0 C12.71895422 10.90196076 19.63599632 25.68021886 23.1328125 41.890625 C23.33777344 42.81359375 23.54273438 43.7365625 23.75390625 44.6875 C25.81142412 55.64200891 25.1328125 65.32114763 25.1328125 76.890625 C-8.1971875 76.890625 -41.5271875 76.890625 -75.8671875 76.890625 C-71.73737285 103.95918464 -71.73737285 103.95918464 -54.9296875 124.078125 C-46.18573599 129.25311671 -35.38362346 129.18924649 -25.59375 127.23828125 C-15.83550235 124.0538671 -10.10232674 118.07832658 -5.09375 109.3203125 C-3.87697319 106.91000939 -2.86994968 104.39753044 -1.8671875 101.890625 C6.7128125 101.890625 15.2928125 101.890625 24.1328125 101.890625 C21.18823366 116.61351918 13.36673414 130.05686687 1.1328125 138.890625 C-10.79091269 146.00059571 -22.2339332 149.46360419 -36.1796875 149.328125 C-37.82445068 149.31676514 -37.82445068 149.31676514 -39.50244141 149.30517578 C-55.89658041 148.97268177 -69.59015431 143.6845123 -81.58203125 132.30078125 C-88.43252641 125.07555815 -92.45236092 117.17744119 -95.8671875 107.890625 C-96.16496094 107.09527344 -96.46273438 106.29992188 -96.76953125 105.48046875 C-100.72797061 94.31412488 -101.21200942 83.61056637 -101.18286133 71.87036133 C-101.17971508 69.22630004 -101.20317137 66.58337568 -101.22851562 63.93945312 C-101.30526293 43.78147877 -97.70179577 25.04503956 -84.8671875 8.890625 C-84.44308594 8.28089844 -84.01898437 7.67117188 -83.58203125 7.04296875 C-76.42605055 -2.56399004 -63.71272895 -8.98688949 -52.10742188 -10.85302734 C-33.3788307 -12.99612027 -15.49661493 -11.40077938 0 0 Z " fill="#040404" transform="translate(1306.8671875,951.109375)"/>
<path d="M0 0 C11.22 0 22.44 0 34 0 C34 16.5 34 33 34 50 C44.89 50 55.78 50 67 50 C67 60.23 67 70.46 67 81 C56.11 81 45.22 81 34 81 C34.06300005 90.91885269 34.13847977 100.83739743 34.23571491 110.75597477 C34.28037451 115.36195679 34.3196403 119.96785127 34.34643555 124.57397461 C34.37251261 129.02211377 34.412946 133.46991522 34.46318626 137.91784477 C34.47982526 139.61178818 34.49135798 141.30578997 34.49761391 142.99980354 C34.50728752 145.37921376 34.53538437 147.75776578 34.56762695 150.13696289 C34.56619186 150.83180283 34.56475677 151.52664276 34.5632782 152.24253845 C34.66988846 157.83328348 35.82115952 162.82115952 39.875 166.875 C48.52685199 171.45539223 58.16233711 168.4102717 67 166 C67 176.89 67 187.78 67 199 C51.48648735 205.20540506 31.82674894 208.8048464 15.5625 202.75 C13.68533978 201.88139116 11.82567006 200.97218344 10 200 C8.906875 199.4225 7.81375 198.845 6.6875 198.25 C-3.64249631 189.60163099 -9.30328359 179.33846715 -11 166 C-11.35998226 159.4860073 -11.2333074 152.95061884 -11.1953125 146.4296875 C-11.19157659 144.5382604 -11.18873235 142.64683135 -11.18673706 140.75540161 C-11.17914606 135.80707337 -11.1595371 130.85886484 -11.1373291 125.9105835 C-11.1167724 120.84925963 -11.10771444 115.78791619 -11.09765625 110.7265625 C-11.07628643 100.81764761 -11.04114183 90.90885255 -11 81 C-17.6 81 -24.2 81 -31 81 C-31 70.44 -31 59.88 -31 49 C-24.07 49 -17.14 49 -10 49 C-9.67 46.69 -9.34 44.38 -9 42 C-8.58379384 39.80626732 -8.1484161 37.61609729 -7.6953125 35.4296875 C-7.31439453 33.58890625 -7.31439453 33.58890625 -6.92578125 31.7109375 C-6.66152344 30.44507813 -6.39726563 29.17921875 -6.125 27.875 C-5.86847656 26.63234375 -5.61195313 25.3896875 -5.34765625 24.109375 C-3.67179774 16.04167424 -1.85407377 8.03431969 0 0 Z " fill="#FF914E" transform="translate(651,895)"/>
<path d="M0 0 C1.08410156 -0.01015137 2.16820312 -0.02030273 3.28515625 -0.03076172 C19.85205192 0.14745792 34.90162672 5.79729884 46.875 17.4375 C55.21346777 27.10216542 59.39795685 38.05228423 61.875 50.4375 C53.625 50.4375 45.375 50.4375 36.875 50.4375 C35.1115625 46.6940625 35.1115625 46.6940625 33.3125 42.875 C30.31692116 36.8023217 27.58365773 31.36653568 21.875 27.4375 C20.79605469 26.68726563 20.79605469 26.68726563 19.6953125 25.921875 C13.55410818 22.43994607 7.66178639 21.95577638 0.75 21.875 C-0.08490967 21.86025635 -0.91981934 21.8455127 -1.7800293 21.83032227 C-10.78014039 21.9784175 -17.76863829 25.35214396 -24.27734375 31.47265625 C-30.93233563 38.54974064 -33.70702531 46.12829745 -36.125 55.4375 C-36.48464844 56.57960938 -36.84429688 57.72171875 -37.21484375 58.8984375 C-38.63517738 64.66020719 -38.4597987 70.56058349 -38.44067383 76.46166992 C-38.43754477 78.47124659 -38.46173893 80.48080571 -38.48632812 82.49023438 C-38.49428043 98.7049773 -35.94113096 117.32922228 -24.15625 129.46484375 C-15.62727311 137.54108386 -8.20546465 139.03891858 3.28393555 138.98828125 C12.87175024 138.70558516 20.13041281 135.68236574 26.8125 128.6875 C30.25467537 124.32181416 32.58655592 119.47721954 34.875 114.4375 C35.865 112.4575 35.865 112.4575 36.875 110.4375 C45.125 110.4375 53.375 110.4375 61.875 110.4375 C58.19550363 125.15548547 53.93649217 135.95918174 42.875 146.4375 C42.19953125 147.08332031 41.5240625 147.72914063 40.828125 148.39453125 C25.7238583 161.42622 6.23968827 161.17983887 -12.6015625 160.26953125 C-26.98581069 158.58542506 -40.40160277 149.82965409 -49.296875 138.7265625 C-61.36541753 121.80338069 -64.6758742 102.90216007 -64.57104492 82.57714844 C-64.56253034 80.07142889 -64.59143409 77.56799685 -64.62304688 75.0625 C-64.71696548 53.4916445 -59.30403606 32.14083767 -43.96484375 16.19140625 C-30.96615324 4.06388019 -17.45339927 0.11612539 0 0 Z " fill="#030303" transform="translate(801.125,939.5625)"/>
<path d="M0 0 C2.1171875 1.265625 2.1171875 1.265625 4.125 2.75 C5.38183594 3.678125 5.38183594 3.678125 6.6640625 4.625 C16.72170209 13.30969196 20.56625345 28.02627818 22.125 40.75 C22.33692294 45.60285734 22.31010853 50.45542348 22.3125 55.3125 C22.32474609 56.59447266 22.33699219 57.87644531 22.34960938 59.19726562 C22.37430962 75.50766137 20.6627003 93.01844227 9.828125 106.10546875 C1.5260776 114.12189525 -6.47098828 116.18505251 -17.63354492 116.18823242 C-24.39115578 116.04114472 -29.3373812 114.77735913 -34.875 110.75 C-35.9475 110.028125 -37.02 109.30625 -38.125 108.5625 C-53.55027217 92.78665347 -53.30198269 69.68051696 -53.17852783 49.10583496 C-53.01037934 34.95549305 -50.8207223 22.78831351 -42.875 10.75 C-42.276875 9.821875 -41.67875 8.89375 -41.0625 7.9375 C-30.61994082 -2.50505918 -13.73049563 -6.75100012 0 0 Z " fill="#FDFDFD" transform="translate(969.875,963.25)"/>
<path d="M0 0 C0.79390137 0.00829834 1.58780273 0.01659668 2.40576172 0.02514648 C11.4584365 0.2853021 18.64447885 2.83145867 25.30078125 9.13671875 C36.7973172 23.156304 36.52065657 39.79604775 36.44824219 57.01953125 C36.43749929 60.06270154 36.44819644 63.10528485 36.4609375 66.1484375 C36.45961613 68.11198045 36.45705419 70.07552304 36.453125 72.0390625 C36.45717346 72.93412506 36.46122192 73.82918762 36.46539307 74.75137329 C36.37111249 87.63422728 33.32327804 101.14934405 24.22265625 110.75 C15.06732272 118.34137061 4.76025152 119.22439078 -6.65136719 118.65966797 C-13.70798134 117.93423655 -19.49676496 113.67990586 -24.21484375 108.59375 C-34.31612383 94.96072652 -36.16692897 79.20861332 -36.07324219 62.79541016 C-36.06255033 60.57296256 -36.07317906 58.35132898 -36.0859375 56.12890625 C-36.1036406 38.91096656 -34.33843932 21.45650776 -21.89453125 8.4296875 C-15.137481 2.18235671 -9.08967351 -0.12231283 0 0 Z " fill="#FDFDFD" transform="translate(1109.8125,960.5625)"/>
<path d="M0 0 C11.3458919 6.968686 16.67663962 18.44071493 19.72265625 31.109375 C20.84097928 36.73205469 21.03515625 41.36350072 21.03515625 47.25 C-3.71484375 47.25 -28.46484375 47.25 -53.96484375 47.25 C-53.96484375 32.4675992 -50.55447952 17.0068234 -40.21484375 5.8125 C-29.31383809 -3.9657429 -13.49137344 -6.6646922 0 0 Z " fill="#FDFDFD" transform="translate(1284.96484375,962.75)"/>
<path d="M0 0 C0.1174875 3.33303003 0.18767324 6.66551837 0.25 10 C0.30027344 11.40185547 0.30027344 11.40185547 0.3515625 12.83203125 C0.46024435 20.60278379 -1.32624946 25.61849196 -6.125 31.6875 C-11.55736203 36.05700859 -17.94620769 39.56813516 -25 40 C-25.82242187 40.061875 -26.64484375 40.12375 -27.4921875 40.1875 C-34.13211878 40.48179058 -39.35308091 39.63938653 -45 36 C-48.9945271 31.90560973 -50.17518005 28.44840448 -50.4375 22.8125 C-50.34984411 17.70148722 -49.45991216 14.62354903 -46.06640625 10.78125 C-33.53602326 -0.01998751 -15.73565053 -0.61843168 0 0 Z " fill="#FFFDFC" transform="translate(412,1028)"/>
</svg>
